<?xml version="1.0" standalone="no"?>
<!DOCTYPE svg PUBLIC "-//W3C//DTD SVG 20010904//EN"
 "http://www.w3.org/TR/2001/REC-SVG-20010904/DTD/svg10.dtd">
<svg version="1.0" xmlns="http://www.w3.org/2000/svg"
 width="523.000000pt" height="500.000000pt" viewBox="0 0 523.000000 500.000000"
 preserveAspectRatio="xMidYMid meet">

<g transform="translate(0.000000,500.000000) scale(0.100000,-0.100000)"
fill="#000000" stroke="none">
<path d="M2440 4993 c-427 -40 -776 -151 -1110 -353 -338 -203 -647 -512 -850
-850 -437 -724 -476 -1630 -105 -2385 131 -266 270 -461 480 -670 280 -281
603 -481 972 -604 624 -208 1299 -164 1888 124 83 40 184 95 225 121 375 240
689 576 886 948 322 609 381 1317 163 1969 -181 544 -554 1017 -1049 1331
-222 140 -549 269 -825 325 -218 43 -495 62 -675 44z m1743 -1452 c71 -44 67
17 67 -1041 0 -1055 4 -998 -65 -1040 -32 -20 -46 -20 -1565 -20 -1519 0
-1533 0 -1565 20 -69 42 -65 -15 -65 1040 0 1043 -3 995 58 1037 26 17 99 18
1477 23 1773 6 1615 8 1658 -19z"/>
<path d="M1544 3390 l-202 -5 415 -330 c780 -620 837 -664 848 -656 71 55
1273 986 1280 993 10 9 -1968 7 -2341 -2z"/>
<path d="M3570 2949 c-612 -475 -600 -465 -580 -478 8 -5 259 -187 558 -405
l542 -395 0 840 c0 461 -1 839 -2 839 -2 -1 -235 -181 -518 -401z"/>
<path d="M1150 2511 c0 -452 2 -821 5 -821 2 0 188 136 412 301 618 456 653
483 653 490 0 6 -1046 841 -1062 847 -4 2 -8 -366 -8 -817z"/>
<path d="M1816 1980 c-296 -219 -545 -405 -554 -414 -15 -15 12 -16 343 -17
198 0 367 -2 375 -3 8 -2 319 -6 690 -10 371 -3 828 -9 1015 -12 l340 -5 -25
20 c-34 28 -1141 835 -1151 839 -5 2 -56 -33 -114 -78 -138 -107 -143 -107
-261 -14 -48 38 -95 74 -104 81 -13 9 -106 -56 -554 -387z"/>
</g>
</svg>
